<mxfile host="app.diagrams.net" modified="2023-09-24T09:41:36.587Z" agent="Mozilla/5.0 (Windows NT 10.0; Win64; x64) AppleWebKit/537.36 (KHTML, like Gecko) Chrome/116.0.0.0 Safari/537.36" etag="3xxmZy2rOJHxkQn-fsja" version="21.8.1" type="device">
  <diagram name="Page-1" id="e7e014a7-5840-1c2e-5031-d8a46d1fe8dd">
    <mxGraphModel dx="1167" dy="593" grid="1" gridSize="10" guides="1" tooltips="1" connect="1" arrows="1" fold="1" page="1" pageScale="1" pageWidth="1169" pageHeight="826" background="none" math="0" shadow="0">
      <root>
        <mxCell id="0" />
        <mxCell id="1" parent="0" />
        <mxCell id="5HN4UKg1Xnu_4getq7X6-49" value="Pharmacy Shop Management System" style="swimlane;childLayout=stackLayout;resizeParent=1;resizeParentMax=0;startSize=20;html=1;" vertex="1" parent="1">
          <mxGeometry x="220" y="120" width="640" height="590" as="geometry" />
        </mxCell>
        <mxCell id="5HN4UKg1Xnu_4getq7X6-50" value="Admin" style="swimlane;startSize=20;html=1;" vertex="1" parent="5HN4UKg1Xnu_4getq7X6-49">
          <mxGeometry y="20" width="190" height="570" as="geometry" />
        </mxCell>
        <mxCell id="5HN4UKg1Xnu_4getq7X6-69" style="rounded=0;orthogonalLoop=1;jettySize=auto;html=1;exitX=0.493;exitY=0.867;exitDx=0;exitDy=0;entryX=0.5;entryY=0;entryDx=0;entryDy=0;exitPerimeter=0;" edge="1" parent="5HN4UKg1Xnu_4getq7X6-50" source="5" target="5HN4UKg1Xnu_4getq7X6-56">
          <mxGeometry relative="1" as="geometry" />
        </mxCell>
        <mxCell id="5" value="" style="ellipse;shape=startState;fillColor=#000000;strokeColor=none;" parent="5HN4UKg1Xnu_4getq7X6-50" vertex="1">
          <mxGeometry x="80" y="40" width="30" height="30" as="geometry" />
        </mxCell>
        <mxCell id="5HN4UKg1Xnu_4getq7X6-56" value="Click Staff&amp;nbsp;&lt;br&gt;Button" style="rounded=1;whiteSpace=wrap;html=1;" vertex="1" parent="5HN4UKg1Xnu_4getq7X6-50">
          <mxGeometry x="52.5" y="110" width="85" height="40" as="geometry" />
        </mxCell>
        <mxCell id="5HN4UKg1Xnu_4getq7X6-73" value="select option" style="rounded=1;whiteSpace=wrap;html=1;" vertex="1" parent="5HN4UKg1Xnu_4getq7X6-50">
          <mxGeometry x="42.5" y="200" width="105" height="40" as="geometry" />
        </mxCell>
        <mxCell id="5HN4UKg1Xnu_4getq7X6-72" style="rounded=0;orthogonalLoop=1;jettySize=auto;html=1;exitX=1;exitY=0.5;exitDx=0;exitDy=0;entryX=0;entryY=0.5;entryDx=0;entryDy=0;" edge="1" parent="5HN4UKg1Xnu_4getq7X6-49" source="5HN4UKg1Xnu_4getq7X6-56" target="5HN4UKg1Xnu_4getq7X6-71">
          <mxGeometry relative="1" as="geometry" />
        </mxCell>
        <mxCell id="5HN4UKg1Xnu_4getq7X6-74" style="edgeStyle=orthogonalEdgeStyle;rounded=0;orthogonalLoop=1;jettySize=auto;html=1;exitX=0.5;exitY=1;exitDx=0;exitDy=0;entryX=1;entryY=0.5;entryDx=0;entryDy=0;" edge="1" parent="5HN4UKg1Xnu_4getq7X6-49" source="5HN4UKg1Xnu_4getq7X6-71" target="5HN4UKg1Xnu_4getq7X6-73">
          <mxGeometry relative="1" as="geometry" />
        </mxCell>
        <mxCell id="5HN4UKg1Xnu_4getq7X6-76" style="edgeStyle=orthogonalEdgeStyle;rounded=0;orthogonalLoop=1;jettySize=auto;html=1;exitX=0.5;exitY=1;exitDx=0;exitDy=0;entryX=0.5;entryY=0;entryDx=0;entryDy=0;" edge="1" parent="5HN4UKg1Xnu_4getq7X6-49" source="5HN4UKg1Xnu_4getq7X6-73" target="5HN4UKg1Xnu_4getq7X6-59">
          <mxGeometry relative="1" as="geometry" />
        </mxCell>
        <mxCell id="5HN4UKg1Xnu_4getq7X6-51" value="System" style="swimlane;startSize=20;html=1;" vertex="1" parent="5HN4UKg1Xnu_4getq7X6-49">
          <mxGeometry x="190" y="20" width="450" height="570" as="geometry" />
        </mxCell>
        <mxCell id="5HN4UKg1Xnu_4getq7X6-90" style="edgeStyle=orthogonalEdgeStyle;rounded=0;orthogonalLoop=1;jettySize=auto;html=1;exitX=0.5;exitY=1;exitDx=0;exitDy=0;entryX=0.5;entryY=0;entryDx=0;entryDy=0;" edge="1" parent="5HN4UKg1Xnu_4getq7X6-51" source="5HN4UKg1Xnu_4getq7X6-59" target="5HN4UKg1Xnu_4getq7X6-88">
          <mxGeometry relative="1" as="geometry" />
        </mxCell>
        <mxCell id="5HN4UKg1Xnu_4getq7X6-91" style="edgeStyle=orthogonalEdgeStyle;rounded=0;orthogonalLoop=1;jettySize=auto;html=1;exitX=0;exitY=0.5;exitDx=0;exitDy=0;entryX=0.5;entryY=0;entryDx=0;entryDy=0;" edge="1" parent="5HN4UKg1Xnu_4getq7X6-51" source="5HN4UKg1Xnu_4getq7X6-59" target="5HN4UKg1Xnu_4getq7X6-82">
          <mxGeometry relative="1" as="geometry" />
        </mxCell>
        <mxCell id="5HN4UKg1Xnu_4getq7X6-59" value="" style="rhombus;whiteSpace=wrap;html=1;" vertex="1" parent="5HN4UKg1Xnu_4getq7X6-51">
          <mxGeometry x="215" y="280" width="40" height="27" as="geometry" />
        </mxCell>
        <mxCell id="5HN4UKg1Xnu_4getq7X6-63" value="[Add staff]" style="text;html=1;strokeColor=none;fillColor=none;align=center;verticalAlign=middle;whiteSpace=wrap;rounded=0;" vertex="1" parent="5HN4UKg1Xnu_4getq7X6-51">
          <mxGeometry x="100" y="270" width="60" height="30" as="geometry" />
        </mxCell>
        <mxCell id="5HN4UKg1Xnu_4getq7X6-95" style="edgeStyle=orthogonalEdgeStyle;rounded=0;orthogonalLoop=1;jettySize=auto;html=1;entryX=1;entryY=0.5;entryDx=0;entryDy=0;exitX=0.5;exitY=1;exitDx=0;exitDy=0;" edge="1" parent="5HN4UKg1Xnu_4getq7X6-51" source="5HN4UKg1Xnu_4getq7X6-65" target="5HN4UKg1Xnu_4getq7X6-93">
          <mxGeometry relative="1" as="geometry" />
        </mxCell>
        <mxCell id="5HN4UKg1Xnu_4getq7X6-65" value="Update Staff&amp;nbsp;&lt;br style=&quot;border-color: var(--border-color);&quot;&gt;Information" style="rounded=1;whiteSpace=wrap;html=1;" vertex="1" parent="5HN4UKg1Xnu_4getq7X6-51">
          <mxGeometry x="330" y="360" width="110" height="50" as="geometry" />
        </mxCell>
        <mxCell id="5HN4UKg1Xnu_4getq7X6-66" style="rounded=0;orthogonalLoop=1;jettySize=auto;html=1;exitX=1;exitY=0.5;exitDx=0;exitDy=0;entryX=0.5;entryY=0;entryDx=0;entryDy=0;edgeStyle=orthogonalEdgeStyle;" edge="1" parent="5HN4UKg1Xnu_4getq7X6-51" source="5HN4UKg1Xnu_4getq7X6-59" target="5HN4UKg1Xnu_4getq7X6-65">
          <mxGeometry relative="1" as="geometry" />
        </mxCell>
        <mxCell id="5HN4UKg1Xnu_4getq7X6-71" value="Display Staff&lt;br&gt;information &amp;amp; options" style="rounded=1;whiteSpace=wrap;html=1;" vertex="1" parent="5HN4UKg1Xnu_4getq7X6-51">
          <mxGeometry x="22.5" y="110" width="120" height="40" as="geometry" />
        </mxCell>
        <mxCell id="5HN4UKg1Xnu_4getq7X6-96" style="edgeStyle=orthogonalEdgeStyle;rounded=0;orthogonalLoop=1;jettySize=auto;html=1;exitX=0.5;exitY=1;exitDx=0;exitDy=0;entryX=0;entryY=0.5;entryDx=0;entryDy=0;" edge="1" parent="5HN4UKg1Xnu_4getq7X6-51" source="5HN4UKg1Xnu_4getq7X6-82" target="5HN4UKg1Xnu_4getq7X6-93">
          <mxGeometry relative="1" as="geometry" />
        </mxCell>
        <mxCell id="5HN4UKg1Xnu_4getq7X6-82" value="Add Staff&amp;nbsp;&lt;br&gt;Information" style="rounded=1;whiteSpace=wrap;html=1;" vertex="1" parent="5HN4UKg1Xnu_4getq7X6-51">
          <mxGeometry x="27.5" y="360" width="110" height="50" as="geometry" />
        </mxCell>
        <mxCell id="5HN4UKg1Xnu_4getq7X6-85" value="[Update staff]" style="text;html=1;strokeColor=none;fillColor=none;align=center;verticalAlign=middle;whiteSpace=wrap;rounded=0;" vertex="1" parent="5HN4UKg1Xnu_4getq7X6-51">
          <mxGeometry x="280" y="270" width="76" height="30" as="geometry" />
        </mxCell>
        <mxCell id="5HN4UKg1Xnu_4getq7X6-86" value="[Delete staff]" style="text;html=1;strokeColor=none;fillColor=none;align=center;verticalAlign=middle;whiteSpace=wrap;rounded=0;" vertex="1" parent="5HN4UKg1Xnu_4getq7X6-51">
          <mxGeometry x="160" y="307" width="73" height="30" as="geometry" />
        </mxCell>
        <mxCell id="5HN4UKg1Xnu_4getq7X6-94" style="edgeStyle=orthogonalEdgeStyle;rounded=0;orthogonalLoop=1;jettySize=auto;html=1;exitX=0.5;exitY=1;exitDx=0;exitDy=0;entryX=0.5;entryY=0;entryDx=0;entryDy=0;" edge="1" parent="5HN4UKg1Xnu_4getq7X6-51" source="5HN4UKg1Xnu_4getq7X6-88" target="5HN4UKg1Xnu_4getq7X6-93">
          <mxGeometry relative="1" as="geometry" />
        </mxCell>
        <mxCell id="5HN4UKg1Xnu_4getq7X6-88" value="Delete Staff&amp;nbsp;&lt;br style=&quot;border-color: var(--border-color);&quot;&gt;Information" style="rounded=1;whiteSpace=wrap;html=1;" vertex="1" parent="5HN4UKg1Xnu_4getq7X6-51">
          <mxGeometry x="180" y="360" width="110" height="50" as="geometry" />
        </mxCell>
        <mxCell id="5HN4UKg1Xnu_4getq7X6-67" value="" style="ellipse;html=1;shape=endState;fillColor=#000000;strokeColor=#000000;" vertex="1" parent="5HN4UKg1Xnu_4getq7X6-51">
          <mxGeometry x="220" y="510" width="30" height="30" as="geometry" />
        </mxCell>
        <mxCell id="5HN4UKg1Xnu_4getq7X6-97" style="edgeStyle=orthogonalEdgeStyle;rounded=0;orthogonalLoop=1;jettySize=auto;html=1;exitX=0.5;exitY=1;exitDx=0;exitDy=0;entryX=0.5;entryY=0;entryDx=0;entryDy=0;" edge="1" parent="5HN4UKg1Xnu_4getq7X6-51" source="5HN4UKg1Xnu_4getq7X6-93" target="5HN4UKg1Xnu_4getq7X6-67">
          <mxGeometry relative="1" as="geometry" />
        </mxCell>
        <mxCell id="5HN4UKg1Xnu_4getq7X6-93" value="" style="rhombus;whiteSpace=wrap;html=1;" vertex="1" parent="5HN4UKg1Xnu_4getq7X6-51">
          <mxGeometry x="215" y="450" width="40" height="27" as="geometry" />
        </mxCell>
      </root>
    </mxGraphModel>
  </diagram>
</mxfile>
